<svg xmlns="http://www.w3.org/2000/svg" viewBox="0 0 64 64">
  <rect width="64" height="64" fill="#0a0e1a"/>
  <g fill="#00ff9d">
    <!-- Aircraft body -->
    <path d="M32 18 L32 28 L28 30 L28 32 L26 32 L26 34 L28 34 L28 36 L32 38 L32 48 L34 48 L34 38 L38 36 L38 34 L40 34 L40 32 L38 32 L38 30 L34 28 L34 18 Z"/>
    <!-- Wings -->
    <path d="M18 30 L28 32 L28 34 L18 32 Z"/>
    <path d="M46 30 L38 32 L38 34 L46 32 Z"/>
    <!-- Tail -->
    <path d="M30 18 L32 14 L34 18 Z"/>
  </g>
  <!-- Radar ring -->
  <circle cx="32" cy="32" r="28" fill="none" stroke="#00ff9d" stroke-width="0.5" opacity="0.3"/>
</svg>
